<?xml version="1.0" encoding="UTF-8" standalone="no"?>
<!DOCTYPE svg PUBLIC "-//W3C//DTD SVG 1.1//EN" "http://www.w3.org/Graphics/SVG/1.1/DTD/svg11.dtd">
<svg width="100%" height="100%" viewBox="0 0 225 225" version="1.1" xmlns="http://www.w3.org/2000/svg" xmlns:xlink="http://www.w3.org/1999/xlink" xml:space="preserve" xmlns:serif="http://www.serif.com/" style="fill-rule:evenodd;clip-rule:evenodd;stroke-linejoin:round;stroke-miterlimit:1.41421;">
    <path d="M182.134,51.721L182.34,51.723L182.545,51.728L182.751,51.734L182.956,51.742L183.161,51.751L183.366,51.762L183.571,51.774L183.776,51.788L183.98,51.804L184.184,51.821L184.388,51.84L184.592,51.86L184.796,51.882L184.999,51.906L185.202,51.931L185.405,51.957L185.607,51.985L185.81,52.015L186.012,52.046L186.213,52.079L186.415,52.113L186.616,52.148L186.817,52.185L187.018,52.223L187.218,52.263L187.418,52.305L187.617,52.347L187.817,52.392L188.016,52.437L188.214,52.484L188.413,52.532L188.61,52.582L188.808,52.633L189.005,52.686L189.202,52.74L189.398,52.795L189.595,52.852L189.79,52.91L189.985,52.969L190.18,53.03L190.375,53.091L190.569,53.155L190.762,53.219L190.956,53.285L191.148,53.352L191.341,53.421L191.533,53.49L191.724,53.561L191.915,53.634L192.106,53.707L192.296,53.782L192.485,53.858L192.674,53.935L192.863,54.013L193.051,54.093L193.239,54.174L193.426,54.256L193.613,54.339L193.799,54.423L193.985,54.509L194.17,54.596L194.355,54.683L194.539,54.773L194.722,54.863L194.905,54.954L195.088,55.047L195.27,55.14L195.451,55.235L195.632,55.331L195.812,55.428L195.992,55.526L196.171,55.625L196.35,55.725L196.528,55.827L196.705,55.929L196.882,56.033L197.058,56.137L197.234,56.243L197.409,56.35L197.583,56.457L197.757,56.566L197.93,56.676L198.103,56.787L198.275,56.899L198.446,57.012L198.616,57.126L198.786,57.24L198.956,57.356L199.124,57.473L199.292,57.591L199.46,57.71L199.626,57.83L199.792,57.951L199.957,58.072L200.122,58.195L200.286,58.319L200.449,58.443L200.612,58.569L200.773,58.695L200.934,58.823L201.095,58.951L201.254,59.08L201.413,59.21L201.571,59.341L201.729,59.473L201.885,59.606L202.041,59.74L202.196,59.875L202.351,60.01L202.504,60.146L202.657,60.284L202.809,60.422L202.96,60.561L203.111,60.701L203.26,60.841L203.409,60.983L203.557,61.125L203.704,61.268L203.851,61.412L203.996,61.557L204.141,61.702L204.285,61.849L204.428,61.996L204.57,62.144L204.711,62.293L204.852,62.442L204.991,62.593L205.13,62.744L205.268,62.896L205.405,63.048L205.541,63.202L205.676,63.356L205.81,63.511L205.943,63.667L206.076,63.823L206.207,63.98L206.338,64.138L206.467,64.297L206.596,64.456L206.724,64.616L206.851,64.777L206.976,64.938L207.101,65.1L207.225,65.263L207.348,65.427L207.47,65.591L207.591,65.756L207.711,65.921L207.83,66.088L207.948,66.255L208.065,66.422L208.181,66.591L208.296,66.759L208.409,66.929L208.522,67.099L208.634,67.27L208.745,67.442L208.854,67.614L208.963,67.786L209.07,67.96L209.177,68.134L209.282,68.308L209.386,68.483L209.489,68.659L209.591,68.835L209.692,69.012L209.792,69.19L209.891,69.368L209.988,69.547L210.084,69.726L210.183,69.913L210.274,70.088L210.365,70.272L210.454,70.458L210.54,70.647L210.624,70.836L210.706,71.027L210.785,71.22L210.862,71.415L210.937,71.611L211.01,71.809L211.08,72.008L211.149,72.21L211.216,72.412L211.281,72.617L211.344,72.823L211.406,73.03L211.465,73.24L211.523,73.451L211.579,73.663L211.633,73.877L211.686,74.092L211.737,74.309L211.786,74.528L211.834,74.748L211.88,74.969L211.925,75.192L211.968,75.416L212.009,75.642L212.049,75.869L212.088,76.097L212.124,76.327L212.16,76.558L212.194,76.791L212.226,77.024L212.257,77.259L212.286,77.495L212.314,77.732L212.34,77.971L212.365,78.21L212.389,78.451L212.411,78.693L212.431,78.935L212.45,79.179L212.468,79.424L212.484,79.67L212.499,79.916L212.512,80.164L212.524,80.412L212.535,80.661L212.544,80.911L212.551,81.162L212.557,81.414L212.562,81.666L212.565,81.919L212.567,82.172L212.567,82.426L212.566,82.681L212.563,82.936L212.559,83.192L212.554,83.448L212.547,83.705L212.538,83.962L212.529,84.219L212.517,84.477L212.504,84.735L212.49,84.994L212.474,85.252L212.457,85.511L212.438,85.77L212.418,86.029L212.396,86.289L212.373,86.548L212.348,86.807L212.322,87.066L212.294,87.326L212.265,87.585L212.234,87.844L212.202,88.103L212.168,88.362L212.133,88.621L212.096,88.879L212.058,89.137L212.018,89.395L211.976,89.653L211.933,89.91L211.888,90.167L211.842,90.423L211.794,90.679L211.744,90.934L211.693,91.189L211.641,91.444L211.586,91.697L211.53,91.95L211.473,92.203L211.413,92.454L211.352,92.705L211.29,92.955L211.225,93.205L211.159,93.453L211.092,93.701L211.022,93.948L210.951,94.194L210.878,94.439L210.803,94.683L210.727,94.926L210.648,95.167L210.568,95.408L210.486,95.648L210.402,95.886L210.316,96.124L210.229,96.36L210.139,96.595L210.047,96.828L209.954,97.061L209.859,97.292L209.761,97.521L209.662,97.749L209.56,97.976L209.456,98.201L209.35,98.425L209.243,98.647L209.132,98.868L209.02,99.087L208.906,99.304L208.789,99.52L208.67,99.734L208.548,99.946L208.435,100.139L202.69,96.756L202.783,96.598L202.865,96.456L202.945,96.31L203.026,96.162L203.105,96.012L203.184,95.858L203.261,95.703L203.338,95.544L203.415,95.383L203.49,95.22L203.564,95.054L203.637,94.886L203.71,94.716L203.781,94.543L203.851,94.368L203.921,94.191L203.989,94.012L204.056,93.831L204.122,93.648L204.188,93.463L204.252,93.275L204.314,93.087L204.376,92.896L204.437,92.704L204.496,92.51L204.555,92.314L204.612,92.117L204.668,91.918L204.723,91.718L204.776,91.516L204.829,91.313L204.88,91.108L204.93,90.903L204.978,90.696L205.026,90.488L205.072,90.279L205.117,90.068L205.161,89.857L205.204,89.645L205.245,89.432L205.285,89.217L205.324,89.002L205.361,88.787L205.398,88.57L205.433,88.353L205.467,88.135L205.499,87.917L205.53,87.698L205.56,87.479L205.589,87.259L205.616,87.039L205.643,86.819L205.668,86.598L205.691,86.377L205.714,86.156L205.735,85.934L205.754,85.713L205.773,85.491L205.79,85.27L205.806,85.049L205.821,84.827L205.835,84.606L205.847,84.385L205.858,84.165L205.867,83.945L205.876,83.725L205.883,83.505L205.889,83.286L205.894,83.067L205.897,82.849L205.899,82.632L205.9,82.415L205.9,82.199L205.899,81.984L205.896,81.769L205.892,81.555L205.887,81.343L205.881,81.131L205.873,80.92L205.864,80.71L205.854,80.502L205.843,80.294L205.831,80.088L205.817,79.883L205.803,79.68L205.787,79.477L205.77,79.277L205.752,79.077L205.732,78.879L205.712,78.683L205.69,78.489L205.668,78.296L205.644,78.105L205.619,77.915L205.593,77.728L205.566,77.542L205.538,77.359L205.509,77.178L205.479,76.998L205.448,76.821L205.416,76.646L205.382,76.473L205.348,76.303L205.313,76.135L205.277,75.97L205.241,75.807L205.203,75.647L205.164,75.489L205.125,75.334L205.085,75.182L205.044,75.033L205.002,74.887L204.96,74.743L204.917,74.603L204.874,74.466L204.83,74.332L204.785,74.202L204.74,74.075L204.694,73.951L204.648,73.831L204.602,73.715L204.556,73.602L204.509,73.493L204.463,73.387L204.416,73.286L204.37,73.189L204.324,73.095L204.274,72.999L204.202,72.863L204.126,72.721L204.048,72.579L203.97,72.437L203.89,72.296L203.81,72.155L203.729,72.015L203.646,71.874L203.563,71.734L203.479,71.595L203.394,71.456L203.308,71.317L203.221,71.178L203.133,71.04L203.044,70.903L202.954,70.765L202.863,70.629L202.772,70.492L202.679,70.356L202.586,70.221L202.492,70.085L202.396,69.951L202.3,69.817L202.204,69.683L202.106,69.549L202.007,69.417L201.908,69.284L201.807,69.152L201.706,69.021L201.604,68.89L201.501,68.76L201.398,68.63L201.293,68.501L201.188,68.372L201.082,68.244L200.975,68.116L200.867,67.989L200.759,67.862L200.65,67.736L200.54,67.611L200.429,67.486L200.318,67.361L200.205,67.238L200.092,67.115L199.979,66.992L199.864,66.87L199.749,66.749L199.633,66.628L199.516,66.508L199.399,66.389L199.281,66.27L199.162,66.152L199.043,66.034L198.923,65.917L198.802,65.801L198.68,65.686L198.558,65.571L198.436,65.457L198.312,65.344L198.188,65.231L198.063,65.119L197.938,65.008L197.812,64.897L197.686,64.787L197.558,64.678L197.431,64.57L197.302,64.462L197.173,64.355L197.044,64.249L196.914,64.144L196.783,64.039L196.652,63.935L196.52,63.832L196.388,63.73L196.255,63.629L196.122,63.528L195.988,63.428L195.854,63.329L195.719,63.231L195.583,63.134L195.447,63.037L195.311,62.941L195.174,62.847L195.037,62.753L194.899,62.659L194.761,62.567L194.622,62.476L194.483,62.385L194.343,62.295L194.203,62.207L194.063,62.119L193.922,62.032L193.78,61.945L193.639,61.86L193.497,61.776L193.354,61.693L193.211,61.61L193.068,61.528L192.924,61.448L192.78,61.368L192.636,61.289L192.492,61.212L192.347,61.135L192.201,61.059L192.056,60.984L191.91,60.91L191.763,60.837L191.617,60.765L191.47,60.694L191.323,60.624L191.175,60.555L191.028,60.487L190.88,60.42L190.732,60.353L190.583,60.288L190.434,60.224L190.285,60.161L190.136,60.099L189.987,60.038L189.837,59.978L189.687,59.92L189.537,59.862L189.387,59.805L189.236,59.749L189.086,59.694L188.935,59.641L188.784,59.588L188.633,59.537L188.482,59.486L188.33,59.437L188.179,59.389L188.027,59.342L187.875,59.295L187.723,59.25L187.571,59.207L187.419,59.164L187.267,59.122L187.114,59.081L186.962,59.042L186.809,59.004L186.657,58.966L186.504,58.93L186.351,58.895L186.199,58.861L186.046,58.829L185.893,58.797L185.74,58.767L185.587,58.737L185.434,58.709L185.281,58.682L185.128,58.656L184.975,58.632L184.822,58.608L184.668,58.586L184.515,58.565L184.362,58.545L184.209,58.526L184.056,58.508L183.903,58.492L183.75,58.476L183.597,58.462L183.445,58.449L183.292,58.437L183.139,58.427L182.986,58.418L182.833,58.41L182.681,58.403L182.528,58.397L182.376,58.392L182.223,58.389L182.071,58.387L181.919,58.386L181.767,58.387L181.615,58.388L181.463,58.391L181.311,58.395L181.159,58.401L181.007,58.407L180.856,58.415L180.704,58.424L180.553,58.435L180.402,58.446L180.251,58.459L180.1,58.473L179.949,58.489L179.798,58.505L179.647,58.523L179.497,58.542L179.347,58.563L179.196,58.585L179.046,58.608L178.896,58.632L178.747,58.658L178.597,58.685L178.447,58.713L178.298,58.743L178.149,58.774L178,58.806L177.851,58.84L177.702,58.875L177.553,58.911L177.405,58.949L177.257,58.988L177.108,59.029L176.96,59.07L176.813,59.113L176.665,59.158L176.517,59.204L176.37,59.251L176.223,59.3L176.076,59.35L175.929,59.402L175.782,59.455L175.635,59.509L175.489,59.565L175.343,59.622L175.197,59.681L175.051,59.741L174.905,59.803L174.759,59.866L174.614,59.93L174.469,59.996L174.324,60.064L174.179,60.133L174.034,60.204L173.89,60.276L173.745,60.349L173.601,60.425L173.457,60.501L173.313,60.58L173.169,60.659L173.026,60.741L172.883,60.824L172.74,60.909L172.597,60.995L172.454,61.083L172.311,61.172L172.169,61.263L172.027,61.356L171.885,61.451L171.743,61.547L171.602,61.645L171.46,61.744L171.319,61.845L171.179,61.948L171.038,62.053L170.897,62.159L170.757,62.267L170.617,62.377L170.478,62.489L170.338,62.602L170.199,62.717L170.06,62.834L169.921,62.953L169.782,63.073L169.643,63.197L169.391,63.424L169.14,63.652L168.892,63.88L168.647,64.108L168.405,64.337L168.166,64.566L167.929,64.795L167.694,65.024L167.462,65.253L167.232,65.483L167.004,65.713L166.778,65.943L166.555,66.173L166.333,66.404L166.113,66.635L165.895,66.866L165.678,67.097L165.463,67.328L165.249,67.56L165.037,67.792L164.826,68.024L164.617,68.256L164.408,68.489L164.201,68.721L163.994,68.954L163.79,69.186L163.38,69.655L162.973,70.123L162.569,70.591L162.165,71.06L161.762,71.531L160.955,72.471L160.549,72.942L160.142,73.413L159.732,73.883L159.524,74.12L159.317,74.356L159.108,74.591L158.898,74.827L158.687,75.062L158.474,75.297L158.261,75.532L158.045,75.767L157.828,76.002L157.61,76.236L157.389,76.47L157.167,76.704L156.943,76.937L156.717,77.171L156.489,77.403L156.259,77.636L156.027,77.868L155.792,78.099L155.555,78.33L155.315,78.56L155.073,78.79L154.828,79.019L154.581,79.247L154.331,79.475L154.077,79.702L153.821,79.928L153.563,80.153L153.301,80.378L153.035,80.602L152.767,80.824L152.495,81.046L152.22,81.267L151.942,81.486L151.66,81.705L151.375,81.922L151.086,82.138L150.793,82.353L150.5,82.565L150.347,82.674L150.197,82.78L150.045,82.886L149.893,82.991L149.739,83.096L149.585,83.201L149.429,83.305L149.273,83.409L149.115,83.513L148.957,83.617L148.797,83.72L148.636,83.822L148.475,83.925L148.312,84.026L148.148,84.128L147.984,84.229L147.818,84.33L147.651,84.43L147.483,84.53L147.313,84.63L147.143,84.729L146.972,84.828L146.799,84.926L146.626,85.024L146.451,85.122L146.275,85.219L146.098,85.316L145.92,85.412L145.74,85.508L145.56,85.604L145.378,85.699L145.195,85.794L145.011,85.888L144.825,85.982L144.639,86.075L144.451,86.168L144.262,86.261L144.072,86.353L143.88,86.444L143.688,86.535L143.494,86.626L143.298,86.716L143.102,86.806L142.904,86.895L142.705,86.984L142.504,87.073L142.303,87.161L142.099,87.248L141.895,87.335L141.689,87.422L141.482,87.508L141.274,87.593L141.064,87.678L140.853,87.763L140.64,87.847L140.426,87.931L140.211,88.014L139.994,88.097L139.776,88.179L139.556,88.261L139.335,88.342L139.113,88.423L138.889,88.503L138.664,88.583L138.437,88.662L138.208,88.741L137.979,88.819L137.747,88.897L137.514,88.975L137.28,89.051L137.044,89.128L136.807,89.203L136.568,89.279L136.328,89.354L136.086,89.428L135.842,89.502L135.597,89.575L135.35,89.648L135.102,89.72L134.852,89.792L134.6,89.863L134.347,89.934L134.092,90.004L133.835,90.074L133.577,90.143L133.318,90.212L133.056,90.28L133.034,90.286L133.098,90.258L132.927,90.329L132.753,90.399L132.578,90.47L132.4,90.539L132.22,90.609L132.038,90.679L131.854,90.748L131.667,90.817L131.478,90.886L131.288,90.954L131.095,91.023L130.9,91.091L130.702,91.159L130.503,91.228L130.298,91.296L129.892,91.431L129.474,91.566L129.048,91.7L128.614,91.834L128.171,91.967L127.721,92.1L127.263,92.233L126.797,92.364L126.324,92.496L125.843,92.626L125.355,92.756L124.859,92.886L124.357,93.014L123.848,93.142L123.332,93.27L122.81,93.397L122.282,93.522L121.747,93.648L121.206,93.772L120.66,93.895L120.107,94.018L119.55,94.14L118.987,94.26L118.418,94.38L117.845,94.499L117.267,94.616L116.684,94.733L116.097,94.848L115.505,94.963L114.909,95.076L114.31,95.187L113.706,95.298L113.099,95.407L112.488,95.515L111.875,95.621L111.258,95.726L110.638,95.83L110.015,95.932L109.39,96.032L108.763,96.131L108.133,96.228L107.501,96.324L106.868,96.417L106.233,96.509L105.596,96.6L104.958,96.688L104.319,96.774L103.679,96.859L103.038,96.942L102.396,97.022L101.755,97.101L101.112,97.177L100.47,97.252L99.828,97.324L99.186,97.394L98.545,97.462L97.904,97.527L97.265,97.59L96.626,97.651L95.988,97.71L95.352,97.766L94.717,97.819L94.084,97.87L93.452,97.918L92.823,97.964L92.196,98.007L91.571,98.047L90.949,98.085L90.33,98.119L89.713,98.151L89.1,98.18L88.49,98.206L87.883,98.229L87.279,98.249L86.68,98.266L86.086,98.28L85.788,98.286L85.493,98.291L85.198,98.295L84.905,98.298L84.613,98.301L84.322,98.303L84.032,98.303L83.743,98.303L83.456,98.303L83.169,98.301L82.884,98.299L82.6,98.295L82.317,98.291L82.036,98.286L81.756,98.28L81.477,98.273L81.199,98.265L80.923,98.256L80.648,98.247L80.375,98.236L80.102,98.225L79.832,98.212L79.562,98.199L79.294,98.185L79.028,98.17L78.763,98.153L78.499,98.136L78.237,98.118L77.977,98.099L77.718,98.079L77.46,98.058L77.204,98.035L76.95,98.012L76.697,97.988L76.446,97.962L76.196,97.936L75.948,97.909L75.702,97.88L75.457,97.85L75.214,97.82L74.972,97.788L74.733,97.755L74.494,97.72L74.258,97.685L74.023,97.648L73.79,97.61L73.559,97.571L73.329,97.531L73.101,97.49L72.875,97.447L72.65,97.403L72.428,97.357L72.207,97.31L71.987,97.262L71.77,97.212L71.554,97.161L71.34,97.109L71.127,97.055L70.917,96.999L70.708,96.942L70.5,96.883L70.295,96.823L70.091,96.761L69.889,96.697L69.688,96.632L69.49,96.564L69.293,96.495L69.097,96.424L68.904,96.35L68.712,96.275L68.521,96.197L68.333,96.118L68.146,96.036L67.961,95.951L67.777,95.864L67.595,95.775L67.415,95.683L67.237,95.588L67.06,95.49L66.885,95.389L66.711,95.285L66.54,95.178L66.371,95.068L66.203,94.954L66.037,94.836L65.874,94.714L65.712,94.589L65.57,94.473L64.883,93.902L64.226,93.357L63.58,92.826L62.946,92.307L62.324,91.801L61.714,91.308L61.113,90.826L60.819,90.592L60.526,90.359L60.236,90.13L59.948,89.903L59.663,89.68L59.381,89.46L59.101,89.243L58.824,89.029L58.55,88.817L58.277,88.609L58.008,88.404L57.74,88.202L57.475,88.003L57.213,87.806L56.952,87.613L56.695,87.422L56.439,87.235L56.185,87.05L55.934,86.868L55.685,86.689L55.438,86.513L55.193,86.34L54.95,86.169L54.71,86.001L54.471,85.836L54.234,85.674L54,85.514L53.767,85.358L53.536,85.204L53.307,85.052L53.08,84.903L52.855,84.757L52.631,84.614L52.409,84.473L52.189,84.335L51.971,84.199L51.754,84.066L51.539,83.935L51.326,83.807L51.114,83.682L50.904,83.559L50.695,83.438L50.488,83.32L50.282,83.204L50.078,83.091L49.875,82.98L49.673,82.871L49.473,82.765L49.274,82.661L49.076,82.559L48.879,82.459L48.684,82.362L48.489,82.267L48.296,82.174L48.104,82.083L47.913,81.995L47.722,81.908L47.533,81.824L47.345,81.741L47.157,81.661L46.97,81.582L46.784,81.506L46.599,81.431L46.414,81.359L46.23,81.288L46.047,81.22L45.864,81.153L45.682,81.087L45.499,81.024L45.318,80.963L45.137,80.903L44.955,80.845L44.775,80.788L44.594,80.734L44.413,80.681L44.233,80.629L44.053,80.579L43.872,80.531L43.691,80.484L43.511,80.439L43.33,80.396L43.148,80.354L42.967,80.313L42.785,80.274L42.603,80.236L42.42,80.2L42.236,80.165L42.053,80.132L41.868,80.1L41.683,80.069L41.497,80.04L41.31,80.012L41.122,79.986L40.933,79.96L40.744,79.937L40.553,79.914L40.362,79.893L40.169,79.873L39.975,79.854L39.78,79.837L39.584,79.82L39.386,79.805L39.187,79.792L38.987,79.779L38.785,79.768L38.582,79.758L38.377,79.749L38.171,79.742L37.963,79.735L37.753,79.73L37.542,79.726L37.329,79.723L37.115,79.721L36.902,79.721L36.811,79.721L36.722,79.723L36.633,79.725L36.543,79.728L36.452,79.731L36.361,79.736L36.269,79.742L36.176,79.748L36.082,79.755L35.987,79.763L35.892,79.772L35.796,79.782L35.699,79.793L35.602,79.804L35.504,79.817L35.405,79.83L35.306,79.844L35.206,79.86L35.105,79.876L35.004,79.893L34.902,79.91L34.799,79.929L34.696,79.949L34.593,79.969L34.488,79.991L34.383,80.013L34.278,80.036L34.172,80.061L34.066,80.086L33.959,80.111L33.851,80.138L33.743,80.166L33.635,80.195L33.526,80.224L33.416,80.255L33.307,80.286L33.196,80.318L33.085,80.351L32.974,80.385L32.863,80.42L32.751,80.456L32.638,80.493L32.526,80.53L32.413,80.569L32.299,80.608L32.185,80.648L32.071,80.689L31.957,80.731L31.842,80.774L31.727,80.817L31.611,80.862L31.496,80.907L31.38,80.954L31.264,81.001L31.147,81.049L31.03,81.097L30.913,81.147L30.796,81.197L30.679,81.249L30.561,81.301L30.444,81.354L30.326,81.408L30.207,81.462L30.089,81.518L29.971,81.574L29.856,81.629L29.614,81.747L29.376,81.867L29.138,81.99L28.899,82.116L28.66,82.245L28.421,82.377L28.181,82.512L27.942,82.65L27.703,82.791L27.463,82.936L27.224,83.082L26.985,83.232L26.747,83.385L26.509,83.54L26.271,83.698L26.034,83.859L25.797,84.022L25.561,84.188L25.326,84.357L25.092,84.528L24.858,84.702L24.625,84.878L24.394,85.056L24.163,85.237L23.933,85.42L23.705,85.606L23.478,85.794L23.252,85.984L23.027,86.176L22.804,86.37L22.583,86.566L22.362,86.765L22.144,86.965L21.927,87.168L21.712,87.372L21.499,87.578L21.287,87.786L21.077,87.996L20.87,88.207L20.664,88.42L20.46,88.635L20.259,88.851L20.06,89.069L19.863,89.289L19.668,89.51L19.473,89.735L19.38,89.843L19.286,89.956L19.192,90.068L19.098,90.181L19.005,90.293L18.913,90.407L18.822,90.52L18.731,90.634L18.641,90.748L18.551,90.863L18.462,90.978L18.374,91.093L18.286,91.208L18.2,91.323L18.114,91.439L18.028,91.555L17.943,91.672L17.859,91.788L17.776,91.905L17.694,92.022L17.612,92.139L17.531,92.256L17.45,92.374L17.371,92.492L17.292,92.61L17.214,92.728L17.137,92.846L17.06,92.965L16.985,93.084L16.91,93.203L16.836,93.322L16.763,93.441L16.69,93.56L16.618,93.68L16.548,93.799L16.478,93.919L16.408,94.039L16.34,94.159L16.273,94.279L16.206,94.399L16.14,94.519L16.075,94.639L16.011,94.76L15.948,94.88L15.886,95.001L15.824,95.121L15.764,95.242L15.704,95.363L15.645,95.483L15.588,95.604L15.531,95.725L15.475,95.846L15.419,95.966L15.365,96.087L15.312,96.208L15.26,96.329L15.208,96.45L15.158,96.57L15.108,96.691L15.06,96.812L15.012,96.932L14.965,97.053L14.919,97.174L14.875,97.294L14.831,97.414L14.788,97.535L14.746,97.655L14.705,97.775L14.665,97.895L14.626,98.015L14.588,98.135L14.551,98.255L14.515,98.375L14.48,98.495L14.446,98.614L14.413,98.733L14.381,98.853L14.35,98.972L14.32,99.091L14.291,99.209L14.263,99.328L14.236,99.447L14.21,99.565L14.185,99.683L14.162,99.801L14.139,99.919L14.117,100.036L14.096,100.154L14.076,100.271L14.057,100.388L14.039,100.505L14.023,100.622L14.007,100.738L13.992,100.855L13.979,100.971L13.966,101.087L13.954,101.203L13.945,101.307L13.93,101.504L13.917,101.708L13.905,101.911L13.896,102.114L13.889,102.316L13.885,102.517L13.882,102.718L13.881,102.918L13.883,103.117L13.886,103.316L13.891,103.514L13.899,103.712L13.908,103.909L13.92,104.105L13.933,104.3L13.949,104.495L13.966,104.69L13.985,104.883L14.006,105.076L14.03,105.269L14.055,105.461L14.081,105.652L14.11,105.842L14.141,106.033L14.173,106.222L14.207,106.411L14.244,106.599L14.281,106.787L14.321,106.974L14.363,107.16L14.406,107.346L14.451,107.531L14.498,107.716L14.546,107.9L14.597,108.083L14.649,108.266L14.703,108.448L14.758,108.63L14.815,108.811L14.874,108.991L14.934,109.171L14.997,109.351L15.06,109.529L15.126,109.707L15.193,109.885L15.262,110.061L15.332,110.238L15.404,110.413L15.478,110.588L15.553,110.763L15.629,110.936L15.708,111.109L15.787,111.282L15.869,111.454L15.951,111.625L16.036,111.795L16.122,111.965L16.209,112.134L16.298,112.303L16.388,112.47L16.48,112.638L16.573,112.804L16.668,112.97L16.764,113.135L16.861,113.299L16.96,113.463L17.06,113.626L17.162,113.788L17.265,113.95L17.369,114.111L17.475,114.271L17.582,114.43L17.69,114.589L17.8,114.746L17.911,114.903L18.023,115.06L18.137,115.215L18.251,115.37L18.367,115.524L18.484,115.677L18.603,115.829L18.722,115.981L18.843,116.132L18.965,116.282L19.088,116.431L19.212,116.579L19.338,116.726L19.464,116.873L19.591,117.018L19.72,117.163L19.85,117.307L19.98,117.45L20.112,117.592L20.245,117.734L20.379,117.874L20.514,118.013L20.649,118.152L20.786,118.29L20.924,118.426L21.062,118.562L21.202,118.697L21.342,118.831L21.484,118.963L21.626,119.095L21.769,119.226L21.913,119.356L22.057,119.485L22.203,119.613L22.349,119.74L22.496,119.866L22.644,119.991L22.792,120.115L22.942,120.238L23.092,120.36L23.242,120.48L23.394,120.6L23.546,120.719L23.699,120.836L23.852,120.953L24.006,121.068L24.16,121.183L24.315,121.296L24.471,121.408L24.627,121.519L24.784,121.629L24.941,121.738L25.099,121.846L25.266,121.959L21.539,127.487L21.355,127.362L21.163,127.231L20.971,127.098L20.78,126.964L20.589,126.828L20.399,126.692L20.21,126.553L20.022,126.414L19.834,126.273L19.647,126.13L19.46,125.987L19.274,125.842L19.089,125.695L18.905,125.548L18.722,125.399L18.539,125.248L18.357,125.097L18.176,124.944L17.996,124.789L17.816,124.634L17.638,124.477L17.46,124.318L17.284,124.159L17.108,123.998L16.933,123.835L16.759,123.672L16.586,123.507L16.414,123.341L16.243,123.173L16.073,123.005L15.904,122.835L15.736,122.663L15.569,122.491L15.403,122.317L15.239,122.141L15.075,121.965L14.913,121.787L14.751,121.608L14.591,121.428L14.432,121.246L14.274,121.063L14.118,120.879L13.962,120.694L13.808,120.507L13.655,120.319L13.504,120.13L13.354,119.939L13.205,119.747L13.057,119.555L12.911,119.36L12.766,119.165L12.622,118.968L12.48,118.77L12.34,118.571L12.2,118.371L12.063,118.169L11.926,117.966L11.791,117.762L11.658,117.557L11.527,117.35L11.396,117.142L11.268,116.933L11.141,116.723L11.015,116.512L10.892,116.299L10.77,116.085L10.649,115.87L10.531,115.654L10.414,115.437L10.298,115.218L10.185,114.998L10.073,114.777L9.963,114.555L9.855,114.332L9.749,114.108L9.645,113.882L9.542,113.655L9.442,113.428L9.343,113.199L9.246,112.968L9.152,112.737L9.059,112.505L8.968,112.271L8.879,112.037L8.793,111.801L8.708,111.564L8.626,111.326L8.545,111.088L8.467,110.848L8.391,110.607L8.317,110.364L8.245,110.121L8.176,109.877L8.109,109.632L8.044,109.386L7.981,109.138L7.921,108.89L7.863,108.641L7.807,108.391L7.753,108.139L7.702,107.887L7.654,107.634L7.608,107.38L7.564,107.125L7.523,106.869L7.484,106.613L7.448,106.355L7.414,106.096L7.383,105.837L7.355,105.577L7.329,105.316L7.305,105.054L7.285,104.791L7.266,104.527L7.251,104.263L7.238,103.998L7.228,103.732L7.221,103.465L7.216,103.198L7.214,102.93L7.215,102.661L7.219,102.392L7.226,102.121L7.235,101.851L7.247,101.579L7.262,101.307L7.28,101.034L7.301,100.753L7.318,100.568L7.335,100.394L7.354,100.221L7.375,100.048L7.396,99.875L7.42,99.703L7.444,99.531L7.471,99.358L7.498,99.187L7.527,99.015L7.558,98.844L7.589,98.673L7.622,98.502L7.657,98.332L7.693,98.162L7.73,97.992L7.769,97.823L7.809,97.654L7.85,97.485L7.892,97.316L7.936,97.148L7.981,96.98L8.028,96.813L8.075,96.646L8.124,96.479L8.174,96.312L8.225,96.146L8.278,95.98L8.332,95.815L8.386,95.65L8.442,95.485L8.5,95.321L8.558,95.157L8.618,94.993L8.678,94.83L8.74,94.667L8.803,94.504L8.867,94.342L8.932,94.18L8.999,94.019L9.066,93.858L9.134,93.697L9.204,93.537L9.274,93.377L9.346,93.218L9.418,93.059L9.492,92.9L9.567,92.742L9.642,92.584L9.719,92.427L9.796,92.27L9.875,92.113L9.955,91.957L10.035,91.801L10.117,91.646L10.199,91.491L10.282,91.336L10.367,91.182L10.452,91.028L10.538,90.875L10.625,90.722L10.713,90.57L10.802,90.418L10.892,90.267L10.982,90.115L11.074,89.965L11.166,89.815L11.259,89.665L11.353,89.516L11.448,89.367L11.544,89.218L11.64,89.071L11.738,88.923L11.836,88.776L11.935,88.629L12.035,88.483L12.135,88.338L12.236,88.193L12.338,88.048L12.441,87.904L12.545,87.76L12.649,87.617L12.754,87.474L12.86,87.332L12.966,87.19L13.074,87.049L13.182,86.908L13.29,86.768L13.4,86.628L13.51,86.489L13.621,86.35L13.732,86.212L13.844,86.074L13.957,85.937L14.07,85.8L14.184,85.664L14.299,85.528L14.417,85.39L14.647,85.124L14.882,84.857L15.119,84.593L15.359,84.33L15.602,84.07L15.846,83.812L16.093,83.557L16.342,83.303L16.593,83.052L16.846,82.803L17.101,82.557L17.358,82.313L17.617,82.071L17.878,81.832L18.14,81.595L18.405,81.361L18.671,81.129L18.939,80.9L19.209,80.673L19.48,80.449L19.753,80.228L20.027,80.009L20.302,79.793L20.579,79.579L20.858,79.368L21.138,79.16L21.419,78.955L21.701,78.753L21.985,78.553L22.269,78.357L22.555,78.163L22.842,77.972L23.13,77.785L23.418,77.6L23.708,77.418L23.999,77.24L24.291,77.064L24.583,76.892L24.876,76.722L25.17,76.556L25.465,76.394L25.76,76.234L26.056,76.078L26.353,75.925L26.65,75.776L26.944,75.632L27.097,75.558L27.246,75.488L27.395,75.418L27.545,75.349L27.694,75.28L27.844,75.213L27.993,75.147L28.143,75.081L28.293,75.017L28.443,74.953L28.593,74.89L28.744,74.829L28.894,74.768L29.044,74.708L29.195,74.649L29.345,74.591L29.496,74.534L29.646,74.477L29.797,74.422L29.948,74.368L30.099,74.315L30.25,74.263L30.401,74.211L30.551,74.161L30.702,74.112L30.854,74.063L31.005,74.016L31.156,73.97L31.307,73.925L31.458,73.881L31.609,73.838L31.761,73.796L31.912,73.754L32.063,73.715L32.214,73.676L32.366,73.638L32.517,73.601L32.668,73.566L32.82,73.531L32.971,73.498L33.122,73.466L33.274,73.434L33.425,73.404L33.576,73.376L33.728,73.348L33.879,73.321L34.03,73.296L34.182,73.272L34.333,73.249L34.484,73.227L34.635,73.207L34.786,73.188L34.938,73.17L35.089,73.153L35.24,73.137L35.391,73.123L35.542,73.11L35.693,73.099L35.844,73.088L35.995,73.079L36.145,73.072L36.296,73.065L36.447,73.061L36.597,73.057L36.748,73.055L36.895,73.054L37.15,73.055L37.401,73.057L37.651,73.06L37.9,73.065L38.149,73.071L38.396,73.079L38.643,73.088L38.889,73.099L39.134,73.111L39.379,73.124L39.623,73.139L39.866,73.156L40.109,73.174L40.351,73.194L40.592,73.216L40.833,73.239L41.073,73.264L41.313,73.291L41.553,73.319L41.792,73.349L42.03,73.381L42.268,73.415L42.506,73.45L42.743,73.487L42.98,73.527L43.217,73.568L43.453,73.61L43.689,73.655L43.924,73.702L44.16,73.75L44.395,73.801L44.63,73.854L44.864,73.908L45.098,73.964L45.332,74.023L45.566,74.083L45.8,74.146L46.033,74.21L46.267,74.277L46.5,74.345L46.733,74.416L46.966,74.488L47.199,74.563L47.432,74.64L47.665,74.719L47.897,74.8L48.13,74.883L48.363,74.968L48.595,75.055L48.828,75.145L49.061,75.236L49.294,75.33L49.527,75.425L49.76,75.523L49.994,75.623L50.227,75.726L50.461,75.83L50.695,75.936L50.929,76.045L51.164,76.156L51.399,76.269L51.634,76.384L51.87,76.501L52.106,76.621L52.343,76.742L52.58,76.866L52.817,76.992L53.055,77.121L53.294,77.251L53.534,77.384L53.774,77.519L54.014,77.656L54.256,77.796L54.498,77.938L54.741,78.082L54.985,78.228L55.23,78.377L55.476,78.528L55.722,78.681L55.97,78.837L56.219,78.995L56.469,79.155L56.72,79.318L56.972,79.483L57.225,79.651L57.48,79.821L57.736,79.993L57.993,80.168L58.251,80.345L58.511,80.525L58.773,80.707L59.036,80.892L59.3,81.079L59.566,81.269L59.833,81.461L60.103,81.656L60.374,81.853L60.646,82.053L60.921,82.256L61.197,82.461L61.475,82.669L61.755,82.879L62.037,83.092L62.32,83.308L62.606,83.527L62.894,83.748L63.184,83.972L63.476,84.199L63.77,84.428L64.067,84.661L64.365,84.896L64.666,85.134L64.97,85.375L65.276,85.619L65.894,86.114L66.522,86.622L67.161,87.141L67.81,87.673L68.47,88.216L69.141,88.772L69.807,89.326L69.864,89.372L69.909,89.407L69.958,89.443L70.01,89.481L70.067,89.519L70.128,89.559L70.194,89.6L70.263,89.642L70.337,89.684L70.415,89.728L70.497,89.771L70.584,89.816L70.674,89.86L70.769,89.905L70.867,89.95L70.97,89.995L71.077,90.04L71.187,90.085L71.301,90.13L71.419,90.174L71.541,90.219L71.667,90.263L71.796,90.307L71.929,90.35L72.065,90.393L72.205,90.436L72.348,90.478L72.495,90.52L72.645,90.561L72.799,90.601L72.955,90.641L73.115,90.68L73.278,90.719L73.444,90.756L73.613,90.794L73.785,90.83L73.96,90.866L74.138,90.901L74.319,90.935L74.503,90.969L74.689,91.001L74.879,91.033L75.071,91.064L75.265,91.095L75.463,91.124L75.662,91.153L75.865,91.181L76.07,91.208L76.277,91.234L76.487,91.26L76.699,91.284L76.914,91.308L77.131,91.331L77.35,91.353L77.572,91.374L77.796,91.395L78.021,91.415L78.25,91.433L78.48,91.451L78.712,91.468L78.947,91.485L79.183,91.5L79.422,91.515L79.662,91.528L79.904,91.541L80.149,91.553L80.395,91.565L80.643,91.575L80.893,91.585L81.144,91.593L81.398,91.601L81.653,91.609L81.91,91.615L82.168,91.62L82.428,91.625L82.69,91.629L82.953,91.632L83.218,91.635L83.484,91.636L83.752,91.637L84.022,91.637L84.293,91.636L84.565,91.634L84.838,91.632L85.113,91.629L85.39,91.625L85.667,91.62L85.944,91.615L86.508,91.602L87.074,91.586L87.645,91.567L88.221,91.545L88.8,91.52L89.384,91.493L89.971,91.462L90.562,91.429L91.156,91.393L91.754,91.355L92.354,91.314L92.957,91.27L93.562,91.224L94.17,91.175L94.78,91.123L95.392,91.07L96.006,91.013L96.621,90.955L97.238,90.894L97.856,90.831L98.475,90.765L99.094,90.698L99.714,90.628L100.335,90.556L100.955,90.482L101.576,90.406L102.196,90.328L102.816,90.248L103.435,90.167L104.053,90.083L104.671,89.997L105.287,89.91L105.902,89.821L106.515,89.73L107.126,89.638L107.736,89.544L108.343,89.448L108.948,89.351L109.55,89.252L110.15,89.152L110.746,89.051L111.34,88.948L111.929,88.844L112.516,88.738L113.099,88.632L113.677,88.524L114.252,88.415L114.822,88.305L115.388,88.194L115.949,88.081L116.505,87.968L117.055,87.854L117.601,87.739L118.141,87.624L118.675,87.507L119.203,87.39L119.725,87.272L120.241,87.153L120.75,87.034L121.252,86.915L121.747,86.794L122.235,86.674L122.716,86.553L123.189,86.432L123.654,86.31L124.111,86.188L124.559,86.066L124.999,85.945L125.431,85.823L125.853,85.701L126.266,85.579L126.67,85.457L127.064,85.336L127.447,85.215L127.821,85.094L128.187,84.973L128.361,84.914L128.536,84.855L128.708,84.795L128.877,84.736L129.043,84.677L129.206,84.618L129.367,84.56L129.524,84.501L129.679,84.443L129.83,84.386L129.978,84.328L130.123,84.271L130.265,84.215L130.403,84.159L130.538,84.103L130.904,83.95L131.386,83.826L131.625,83.763L131.863,83.701L132.098,83.637L132.332,83.574L132.565,83.51L132.795,83.445L133.024,83.381L133.25,83.316L133.476,83.25L133.699,83.184L133.921,83.118L134.141,83.051L134.359,82.984L134.576,82.917L134.791,82.849L135.004,82.781L135.215,82.712L135.425,82.644L135.634,82.574L135.84,82.505L136.046,82.435L136.249,82.365L136.451,82.294L136.651,82.223L136.85,82.152L137.047,82.08L137.243,82.008L137.437,81.936L137.63,81.863L137.821,81.79L138.011,81.717L138.199,81.644L138.385,81.57L138.571,81.495L138.754,81.421L138.937,81.346L139.118,81.271L139.297,81.195L139.475,81.12L139.652,81.043L139.827,80.967L140.001,80.89L140.174,80.813L140.345,80.736L140.515,80.658L140.684,80.58L140.851,80.502L141.017,80.424L141.182,80.345L141.345,80.266L141.508,80.186L141.669,80.107L141.829,80.027L141.987,79.946L142.144,79.866L142.301,79.785L142.456,79.704L142.609,79.623L142.762,79.541L142.914,79.459L143.064,79.377L143.213,79.294L143.362,79.212L143.509,79.128L143.655,79.045L143.8,78.962L143.944,78.878L144.086,78.794L144.228,78.709L144.369,78.624L144.509,78.54L144.648,78.454L144.786,78.369L144.922,78.283L145.058,78.197L145.193,78.111L145.328,78.024L145.461,77.937L145.593,77.85L145.724,77.763L145.855,77.675L145.985,77.587L146.113,77.499L146.241,77.41L146.369,77.322L146.495,77.233L146.617,77.145L146.869,76.964L147.115,76.783L147.358,76.602L147.598,76.419L147.835,76.235L148.069,76.05L148.301,75.864L148.531,75.676L148.758,75.488L148.983,75.298L149.205,75.108L149.426,74.916L149.645,74.722L149.861,74.528L150.076,74.332L150.289,74.136L150.501,73.938L150.711,73.739L150.919,73.538L151.127,73.336L151.332,73.134L151.537,72.929L151.741,72.724L151.943,72.517L152.145,72.31L152.345,72.1L152.545,71.89L152.744,71.678L152.943,71.465L153.141,71.251L153.338,71.036L153.535,70.819L153.732,70.601L153.929,70.382L154.125,70.162L154.322,69.94L154.518,69.718L154.713,69.495L155.108,69.042L155.503,68.586L155.899,68.125L156.702,67.19L157.108,66.717L157.518,66.239L157.934,65.758L158.356,65.273L158.782,64.786L159,64.539L159.218,64.293L159.438,64.046L159.66,63.798L159.884,63.549L160.111,63.3L160.339,63.05L160.57,62.8L160.803,62.549L161.039,62.297L161.277,62.045L161.518,61.793L161.762,61.54L162.008,61.286L162.257,61.032L162.509,60.778L162.764,60.523L163.022,60.269L163.283,60.013L163.547,59.758L163.815,59.502L164.086,59.247L164.36,58.991L164.638,58.735L164.919,58.479L165.206,58.221L165.384,58.063L165.565,57.906L165.747,57.75L165.929,57.597L166.112,57.446L166.295,57.297L166.48,57.15L166.664,57.005L166.85,56.861L167.036,56.72L167.223,56.581L167.411,56.444L167.599,56.309L167.788,56.176L167.977,56.046L168.167,55.917L168.358,55.79L168.549,55.665L168.741,55.542L168.934,55.421L169.126,55.303L169.32,55.186L169.514,55.071L169.709,54.958L169.904,54.847L170.099,54.739L170.295,54.632L170.492,54.527L170.689,54.424L170.886,54.324L171.084,54.225L171.283,54.128L171.482,54.033L171.681,53.941L171.88,53.85L172.081,53.761L172.281,53.674L172.482,53.589L172.683,53.506L172.884,53.425L173.086,53.346L173.288,53.269L173.491,53.194L173.694,53.121L173.897,53.049L174.1,52.98L174.304,52.913L174.508,52.847L174.712,52.784L174.916,52.722L175.121,52.662L175.326,52.604L175.531,52.549L175.736,52.495L175.942,52.442L176.147,52.392L176.353,52.344L176.559,52.297L176.765,52.253L176.971,52.21L177.177,52.169L177.383,52.13L177.59,52.092L177.796,52.057L178.003,52.023L178.21,51.991L178.416,51.961L178.623,51.933L178.83,51.907L179.037,51.882L179.244,51.859L179.45,51.838L179.657,51.819L179.864,51.801L180.071,51.785L180.277,51.771L180.484,51.759L180.69,51.748L180.897,51.739L181.103,51.732L181.31,51.726L181.516,51.722L181.722,51.72L181.928,51.72L182.134,51.721Z"/>
    <path d="M186.261,94.448L187.313,94.853L188.339,95.249L188.843,95.446L189.34,95.64L189.832,95.834L190.317,96.027L190.798,96.22L191.273,96.412L191.743,96.604L192.208,96.796L192.668,96.989L193.124,97.183L193.575,97.377L194.022,97.573L194.464,97.769L194.685,97.869L194.904,97.969L195.122,98.069L195.339,98.169L195.556,98.27L195.771,98.372L195.986,98.474L196.2,98.577L196.413,98.681L196.625,98.785L196.837,98.89L197.047,98.996L197.257,99.102L197.467,99.21L197.675,99.318L197.883,99.427L198.091,99.537L198.297,99.648L198.504,99.76L198.709,99.872L198.914,99.986L199.118,100.101L199.322,100.217L199.525,100.334L199.728,100.452L199.93,100.572L200.132,100.692L200.334,100.814L200.534,100.937L200.735,101.061L200.935,101.187L201.135,101.314L201.334,101.442L201.533,101.572L201.731,101.703L201.93,101.835L202.127,101.969L202.325,102.104L202.522,102.241L202.719,102.38L202.916,102.52L203.113,102.661L203.309,102.805L203.505,102.95L203.701,103.096L203.897,103.244L204.092,103.394L204.288,103.546L204.483,103.699L204.678,103.855L204.873,104.012L205.068,104.17L205.263,104.331L205.458,104.494L205.653,104.658L205.848,104.825L206.043,104.993L206.238,105.164L206.433,105.336L206.628,105.51L206.823,105.687L207.018,105.866L207.214,106.046L207.409,106.229L207.605,106.414L207.8,106.601L207.996,106.791L208.193,106.982L208.389,107.176L208.586,107.372L208.783,107.571L208.98,107.771L209.178,107.975L209.376,108.18L209.574,108.388L209.773,108.598L209.972,108.811L210.171,109.026L210.21,109.068L210.37,109.245L210.57,109.466L210.77,109.69L210.971,109.916L211.172,110.145L211.373,110.376L211.575,110.61L211.778,110.847L211.981,111.087L212.185,111.329L212.39,111.574L212.595,111.822L212.801,112.073L213.008,112.327L213.215,112.583L213.425,112.845L213.567,113.025L213.708,113.208L213.848,113.392L213.985,113.577L214.12,113.763L214.253,113.95L214.384,114.138L214.513,114.326L214.64,114.516L214.765,114.706L214.887,114.897L215.008,115.089L215.126,115.281L215.243,115.474L215.357,115.668L215.47,115.863L215.58,116.058L215.689,116.253L215.795,116.45L215.9,116.647L216.002,116.844L216.103,117.042L216.202,117.24L216.298,117.439L216.393,117.638L216.486,117.838L216.577,118.038L216.666,118.239L216.753,118.44L216.839,118.641L216.922,118.843L217.004,119.045L217.084,119.247L217.162,119.449L217.238,119.652L217.312,119.855L217.385,120.058L217.456,120.261L217.525,120.465L217.592,120.668L217.658,120.872L217.722,121.076L217.784,121.28L217.844,121.484L217.903,121.688L217.96,121.892L218.015,122.096L218.069,122.3L218.121,122.504L218.172,122.708L218.22,122.912L218.268,123.116L218.313,123.32L218.357,123.523L218.4,123.727L218.44,123.93L218.48,124.133L218.517,124.336L218.554,124.539L218.588,124.742L218.621,124.944L218.653,125.146L218.683,125.348L218.712,125.549L218.739,125.75L218.765,125.951L218.789,126.152L218.812,126.352L218.833,126.552L218.853,126.751L218.872,126.95L218.889,127.148L218.905,127.346L218.919,127.544L218.932,127.741L218.944,127.937L218.954,128.134L218.963,128.329L218.971,128.524L218.977,128.719L218.982,128.912L218.986,129.106L218.988,129.298L218.99,129.49L218.989,129.682L218.988,129.872L218.985,130.062L218.982,130.252L218.976,130.441L218.97,130.629L218.962,130.816L218.954,131.002L218.944,131.188L218.932,131.373L218.92,131.557L218.906,131.74L218.892,131.923L218.876,132.105L218.859,132.286L218.84,132.466L218.821,132.645L218.8,132.823L218.779,133L218.756,133.177L218.732,133.352L218.708,133.521L218.707,133.527L218.68,133.701L218.652,133.873L218.623,134.045L218.593,134.215L218.562,134.385L218.53,134.553L218.496,134.721L218.462,134.887L218.427,135.053L218.39,135.217L218.352,135.381L218.314,135.543L218.274,135.704L218.233,135.864L218.191,136.023L218.149,136.181L218.105,136.338L218.06,136.493L218.014,136.648L217.966,136.801L217.918,136.953L217.868,137.108L217.803,137.298L217.734,137.492L217.662,137.686L217.588,137.878L217.511,138.07L217.432,138.261L217.35,138.452L217.265,138.642L217.178,138.831L217.089,139.019L216.998,139.207L216.904,139.394L216.808,139.58L216.71,139.766L216.609,139.951L216.507,140.135L216.402,140.318L216.295,140.501L216.186,140.684L216.075,140.865L215.963,141.046L215.848,141.226L215.731,141.406L215.613,141.585L215.492,141.763L215.37,141.94L215.246,142.117L215.12,142.293L214.993,142.469L214.864,142.644L214.733,142.818L214.6,142.991L214.466,143.163L214.33,143.335L214.193,143.506L214.054,143.677L213.914,143.846L213.772,144.015L213.629,144.183L213.484,144.351L213.338,144.517L213.19,144.683L213.041,144.848L212.891,145.012L212.739,145.176L212.586,145.338L212.432,145.5L212.276,145.661L212.26,145.677L212.119,145.82L211.96,145.979L211.8,146.136L211.639,146.293L211.477,146.448L211.314,146.603L211.15,146.757L210.985,146.91L210.818,147.062L210.651,147.212L210.483,147.362L210.313,147.511L210.143,147.659L209.972,147.806L209.8,147.952L209.627,148.097L209.453,148.24L209.279,148.383L209.103,148.524L208.927,148.665L208.75,148.804L208.573,148.942L208.394,149.079L208.215,149.215L208.035,149.35L207.855,149.483L207.674,149.615L207.492,149.746L207.31,149.876L207.127,150.004L206.944,150.132L206.76,150.257L206.575,150.382L206.391,150.505L206.205,150.627L206.019,150.748L205.833,150.867L205.646,150.985L205.459,151.101L205.272,151.216L205.084,151.33L204.896,151.442L204.707,151.553L204.519,151.662L204.33,151.77L204.14,151.876L203.951,151.981L203.761,152.084L203.571,152.185L203.38,152.285L203.19,152.383L202.999,152.48L202.808,152.575L202.617,152.669L202.484,152.733L202.426,152.76L202.234,152.849L202.042,152.937L201.851,153.022L201.658,153.106L201.466,153.188L201.274,153.269L201.082,153.347L200.89,153.424L200.697,153.499L200.505,153.572L200.313,153.643L200.12,153.712L199.928,153.779L199.735,153.844L199.542,153.907L199.35,153.968L199.157,154.027L198.964,154.083L198.772,154.138L198.579,154.19L198.386,154.241L198.193,154.289L198,154.334L197.808,154.378L197.55,154.432L197.162,154.493L196.857,154.541L196.558,154.586L196.264,154.63L195.974,154.672L195.689,154.713L195.408,154.752L195.132,154.788L194.859,154.823L194.59,154.857L194.325,154.888L194.063,154.918L193.805,154.946L193.549,154.973L193.297,154.997L193.048,155.02L192.801,155.041L192.556,155.061L192.315,155.078L192.075,155.094L191.837,155.108L191.602,155.121L191.368,155.132L191.136,155.141L190.906,155.148L190.677,155.154L190.45,155.158L190.224,155.16L189.999,155.16L189.775,155.159L189.552,155.156L189.33,155.152L189.109,155.146L188.888,155.138L188.668,155.129L188.449,155.118L188.23,155.106L188.011,155.092L187.792,155.076L187.574,155.059L187.355,155.041L187.137,155.022L186.917,155.001L186.698,154.978L186.478,154.955L186.257,154.93L186.035,154.903L185.813,154.876L185.589,154.847L185.364,154.818L185.138,154.787L184.909,154.755L184.679,154.722L184.445,154.687L183.977,154.616L183.497,154.541L183.005,154.461L182.5,154.378L181.972,154.289L181.827,154.264L181.675,154.235L181.524,154.205L181.373,154.173L181.222,154.14L181.072,154.105L180.922,154.068L180.773,154.03L180.624,153.99L180.475,153.949L180.327,153.907L180.179,153.863L180.031,153.818L179.884,153.771L179.737,153.724L179.59,153.674L179.444,153.624L179.298,153.572L179.152,153.519L179.006,153.465L178.861,153.41L178.716,153.354L178.571,153.296L178.427,153.238L178.283,153.178L178.139,153.117L177.995,153.055L177.851,152.992L177.708,152.928L177.565,152.863L177.422,152.797L177.279,152.73L177.136,152.663L176.994,152.594L176.851,152.524L176.709,152.453L176.567,152.382L176.421,152.307L176.142,152.162L175.858,152.011L175.576,151.857L175.293,151.7L175.011,151.539L174.729,151.376L174.447,151.21L174.166,151.041L173.885,150.869L173.603,150.695L173.322,150.519L173.041,150.34L172.761,150.158L172.48,149.975L172.199,149.789L171.918,149.602L171.638,149.412L171.357,149.221L171.076,149.028L170.796,148.833L170.515,148.637L170.235,148.439L169.954,148.24L169.674,148.04L169.393,147.839L169.113,147.636L168.831,147.432L168.272,147.023L167.711,146.61L167.151,146.196L166.592,145.78L166.033,145.363L165.634,145.065L164.918,144.528L164.362,144.113L163.808,143.7L163.255,143.29L162.702,142.882L162.428,142.682L162.154,142.482L161.88,142.283L161.606,142.086L161.333,141.89L161.061,141.696L160.789,141.503L160.518,141.313L160.248,141.124L159.979,140.937L159.71,140.753L159.442,140.571L159.175,140.391L158.909,140.213L158.643,140.038L158.379,139.866L158.116,139.696L157.854,139.529L157.593,139.365L157.333,139.204L157.075,139.046L156.818,138.892L156.562,138.74L156.307,138.592L156.054,138.447L155.803,138.306L155.553,138.169L155.305,138.035L155.058,137.905L154.81,137.777L154.692,137.717L154.571,137.656L154.45,137.597L154.33,137.538L154.21,137.481L154.091,137.424L153.973,137.369L153.855,137.314L153.737,137.261L153.62,137.208L153.504,137.157L153.388,137.107L153.273,137.058L153.158,137.01L153.044,136.963L152.931,136.917L152.818,136.873L152.706,136.829L152.594,136.787L152.484,136.746L152.373,136.705L152.264,136.666L152.155,136.629L152.047,136.592L151.94,136.556L151.833,136.522L151.728,136.489L151.622,136.457L151.518,136.426L151.414,136.396L151.312,136.368L151.21,136.34L151.109,136.314L151.008,136.289L150.909,136.265L150.81,136.242L150.712,136.22L150.615,136.2L150.519,136.181L150.423,136.162L150.329,136.145L150.235,136.129L150.142,136.115L150.05,136.101L149.959,136.088L149.869,136.077L149.78,136.067L149.691,136.057L149.604,136.049L149.517,136.042L149.431,136.036L149.346,136.031L149.262,136.027L149.179,136.024L149.097,136.022L149.015,136.022L148.934,136.022L148.854,136.023L148.775,136.025L148.687,136.029L148.173,136.051L147.65,136.075L147.128,136.099L146.608,136.125L146.09,136.151L145.573,136.178L145.057,136.205L144.543,136.234L144.03,136.263L143.518,136.293L143.008,136.324L142.499,136.356L141.992,136.388L141.486,136.421L140.981,136.455L140.477,136.49L139.975,136.526L139.474,136.562L138.974,136.6L138.475,136.638L137.977,136.677L137.481,136.717L136.986,136.757L136.492,136.799L135.999,136.841L135.507,136.884L135.016,136.928L134.527,136.973L134.038,137.019L133.551,137.065L133.064,137.112L132.579,137.161L132.094,137.21L131.611,137.26L131.128,137.31L130.647,137.362L130.166,137.415L129.687,137.468L129.208,137.522L128.73,137.577L128.253,137.633L127.777,137.69L127.301,137.748L126.899,137.798L126.827,137.807L126.353,137.865L125.88,137.925L125.407,137.985L124.936,138.046L124.465,138.108L123.995,138.171L123.525,138.235L123.057,138.3L122.589,138.366L122.121,138.433L121.654,138.5L121.188,138.569L120.723,138.638L120.258,138.708L119.793,138.78L119.33,138.852L118.866,138.925L118.403,138.999L117.941,139.074L117.479,139.15L117.018,139.227L116.557,139.305L116.097,139.384L115.637,139.463L115.177,139.544L114.718,139.626L114.259,139.708L113.8,139.792L113.342,139.877L112.884,139.962L112.427,140.049L111.969,140.136L111.512,140.225L111.056,140.314L110.599,140.404L110.143,140.496L109.687,140.588L109.231,140.682L108.775,140.776L108.32,140.871L107.864,140.968L107.409,141.065L106.954,141.164L106.498,141.263L106.043,141.363L105.588,141.465L105.133,141.567L104.889,141.623L104.678,141.67L104.223,141.774L103.768,141.879L103.313,141.984L102.858,142.091L102.402,142.199L101.947,142.308L101.491,142.418L101.036,142.528L100.58,142.64L100.124,142.753L99.668,142.867L99.212,142.983L98.755,143.099L98.299,143.216L97.842,143.334L97.385,143.454L96.927,143.574L96.47,143.696L96.012,143.818L95.553,143.942L95.095,144.067L94.636,144.193L94.177,144.32L93.717,144.448L93.257,144.577L92.796,144.707L92.335,144.839L91.874,144.971L91.412,145.105L90.95,145.24L90.487,145.376L90.024,145.513L89.56,145.651L89.095,145.79L88.724,145.902L88.427,146.099L88.06,146.345L87.703,146.586L87.354,146.824L87.014,147.058L86.682,147.288L86.359,147.515L86.044,147.739L85.747,147.953L85.736,147.96L85.435,148.178L85.142,148.393L84.855,148.607L84.575,148.818L84.3,149.028L84.032,149.237L83.769,149.444L83.511,149.651L83.255,149.86L83.134,149.961L83.01,150.064L82.887,150.167L82.766,150.271L82.645,150.374L82.525,150.478L82.406,150.581L82.288,150.685L82.171,150.79L82.054,150.894L81.938,150.999L81.822,151.105L81.707,151.21L81.593,151.317L81.479,151.424L81.366,151.531L81.253,151.639L81.14,151.748L81.028,151.857L80.915,151.967L80.803,152.078L80.692,152.19L80.58,152.303L80.468,152.416L80.357,152.531L80.245,152.646L80.134,152.763L80.022,152.881L79.91,153L79.801,153.117L79.573,153.363L79.348,153.612L79.12,153.867L78.891,154.127L78.66,154.394L78.427,154.667L78.191,154.946L77.953,155.233L77.711,155.527L77.465,155.829L77.217,156.138L76.964,156.456L76.707,156.782L76.446,157.117L76.18,157.461L75.909,157.813L75.634,158.176L75.353,158.547L75.066,158.929L74.773,159.321L74.475,159.723L74.17,160.135L73.858,160.559L73.54,160.993L73.215,161.439L72.947,161.806L72.882,161.894L72.19,162.842L71.291,164.078L70.855,164.524L70.618,164.763L70.381,164.999L70.143,165.233L69.906,165.464L69.67,165.693L69.433,165.919L69.196,166.142L68.96,166.363L68.723,166.581L68.487,166.797L68.251,167.01L68.015,167.22L67.779,167.428L67.543,167.634L67.307,167.837L67.07,168.037L66.835,168.235L66.599,168.431L66.363,168.624L66.127,168.814L65.891,169.002L65.655,169.188L65.419,169.371L65.182,169.552L64.946,169.73L64.71,169.906L64.474,170.08L64.238,170.251L64.001,170.419L63.765,170.585L63.528,170.749L63.292,170.911L63.055,171.07L62.818,171.226L62.581,171.381L62.344,171.533L62.107,171.682L61.87,171.83L61.632,171.974L61.395,172.117L61.157,172.257L60.919,172.395L60.681,172.531L60.443,172.664L60.205,172.795L59.967,172.924L59.728,173.05L59.49,173.174L59.251,173.296L59.012,173.415L58.773,173.533L58.534,173.648L58.295,173.76L58.055,173.871L57.815,173.979L57.811,173.981L57.575,174.083L57.334,174.186L57.094,174.285L56.853,174.383L56.612,174.479L56.371,174.572L56.13,174.663L55.889,174.752L55.647,174.839L55.406,174.923L55.164,175.006L54.923,175.086L54.681,175.164L54.439,175.24L54.198,175.314L53.956,175.386L53.714,175.455L53.472,175.523L53.23,175.588L52.987,175.652L52.745,175.713L52.503,175.772L52.261,175.83L52.018,175.885L51.776,175.938L51.534,175.99L51.291,176.039L51.049,176.086L50.806,176.132L50.564,176.175L50.321,176.217L50.078,176.257L49.836,176.294L49.593,176.33L49.351,176.364L49.108,176.397L48.865,176.427L48.623,176.456L48.38,176.483L48.137,176.508L47.895,176.531L47.652,176.553L47.409,176.573L47.167,176.591L46.924,176.607L46.681,176.622L46.439,176.635L46.196,176.647L45.953,176.657L45.71,176.665L45.468,176.672L45.225,176.677L44.982,176.681L44.739,176.683L44.496,176.684L44.253,176.683L44.01,176.681L43.767,176.677L43.524,176.672L43.281,176.666L43.038,176.658L42.795,176.648L42.606,176.64L42.552,176.637L42.308,176.624L42.065,176.609L41.822,176.592L41.578,176.575L41.334,176.556L41.091,176.536L40.847,176.515L40.603,176.492L40.35,176.468L40.1,176.441L39.841,176.411L39.581,176.376L39.322,176.338L39.063,176.296L38.805,176.25L38.546,176.201L38.288,176.148L38.03,176.092L37.773,176.032L37.516,175.968L37.259,175.901L37.002,175.831L36.746,175.757L36.491,175.68L36.236,175.599L35.981,175.515L35.727,175.427L35.474,175.336L35.221,175.242L34.969,175.144L34.717,175.043L34.466,174.939L34.216,174.831L33.966,174.721L33.717,174.607L33.469,174.489L33.222,174.369L32.975,174.245L32.73,174.118L32.485,173.988L32.241,173.855L31.998,173.718L31.756,173.578L31.515,173.436L31.275,173.29L31.036,173.141L30.798,172.989L30.561,172.833L30.325,172.675L30.091,172.514L29.857,172.349L29.625,172.182L29.394,172.011L29.165,171.837L28.936,171.661L28.709,171.481L28.483,171.298L28.259,171.113L28.036,170.924L27.815,170.732L27.595,170.537L27.417,170.377L27.376,170.34L27.161,170.138L26.947,169.933L26.734,169.725L26.524,169.514L26.315,169.3L26.107,169.084L25.902,168.864L25.698,168.642L25.496,168.416L25.297,168.188L25.098,167.957L24.902,167.724L24.708,167.487L24.516,167.248L24.326,167.006L24.138,166.761L23.952,166.513L23.768,166.262L23.586,166.009L23.41,165.757L23.318,165.624L23.23,165.494L23.142,165.364L23.055,165.233L22.968,165.101L22.882,164.968L22.797,164.835L22.712,164.701L22.628,164.567L22.544,164.432L22.461,164.296L22.379,164.159L22.297,164.022L22.216,163.884L22.135,163.746L22.055,163.607L21.976,163.467L21.897,163.326L21.819,163.185L21.741,163.043L21.665,162.901L21.589,162.758L21.513,162.614L21.438,162.469L21.364,162.324L21.291,162.178L21.218,162.032L21.146,161.885L21.074,161.737L21.003,161.589L20.933,161.44L20.864,161.29L20.795,161.14L20.727,160.989L20.66,160.838L20.593,160.686L20.527,160.533L20.462,160.379L20.398,160.225L20.334,160.071L20.271,159.915L20.209,159.759L20.147,159.603L20.087,159.446L20.027,159.288L19.967,159.129L19.909,158.97L19.851,158.811L19.794,158.651L19.738,158.49L19.682,158.328L19.628,158.166L19.574,158.003L19.521,157.84L19.468,157.676L19.417,157.512L19.366,157.347L19.316,157.181L19.267,157.015L19.219,156.848L19.171,156.68L19.125,156.512L19.079,156.344L19.034,156.174L18.99,156.005L18.946,155.834L18.904,155.663L18.862,155.492L18.821,155.319L18.781,155.147L18.742,154.973L18.704,154.8L18.667,154.625L18.63,154.45L18.594,154.275L18.56,154.098L18.526,153.922L18.493,153.745L18.461,153.567L18.429,153.388L18.399,153.209L18.369,153.03L18.341,152.85L18.313,152.669L18.286,152.488L18.261,152.307L18.236,152.124L18.212,151.942L18.189,151.758L18.167,151.574L18.145,151.39L18.125,151.205L18.106,151.02L18.087,150.834L18.07,150.647L18.053,150.46L18.038,150.273L18.023,150.084L18.01,149.896L17.997,149.707L17.985,149.517L17.974,149.327L17.965,149.136L17.956,148.945L17.948,148.753L17.941,148.561L17.936,148.368L17.931,148.175L17.927,147.981L17.924,147.787L17.922,147.603L17.922,147.42L17.922,147.237L17.923,147.055L17.926,146.873L17.929,146.692L17.934,146.511L17.939,146.331L17.945,146.151L17.953,145.972L17.961,145.793L17.971,145.614L17.981,145.436L17.993,145.258L18.005,145.081L18.019,144.905L18.033,144.728L18.048,144.553L18.065,144.377L18.082,144.203L18.101,144.028L18.12,143.854L18.14,143.681L18.162,143.508L18.184,143.335L18.207,143.163L18.232,142.992L18.257,142.821L18.283,142.65L18.31,142.48L18.338,142.31L18.367,142.141L18.384,142.05L18.398,141.972L18.43,141.804L18.463,141.636L18.497,141.469L18.531,141.302L18.567,141.136L18.604,140.97L18.642,140.805L18.68,140.64L18.72,140.476L18.76,140.312L18.801,140.149L18.843,139.986L18.887,139.823L18.931,139.661L18.975,139.5L19.021,139.339L19.068,139.178L19.116,139.018L19.164,138.859L19.214,138.699L19.264,138.541L19.315,138.383L19.367,138.225L19.42,138.068L19.474,137.911L19.528,137.755L19.584,137.599L19.64,137.444L19.697,137.289L19.755,137.134L19.814,136.98L19.874,136.827L19.934,136.674L19.995,136.521L20.058,136.369L20.121,136.218L20.184,136.067L20.249,135.916L20.314,135.766L20.381,135.616L20.448,135.467L20.516,135.318L20.584,135.17L20.654,135.022L20.724,134.874L20.795,134.727L20.867,134.581L20.939,134.435L21.012,134.289L21.086,134.144L21.161,133.999L21.237,133.855L21.313,133.711L21.39,133.567L21.468,133.424L21.547,133.282L21.626,133.14L21.706,132.998L21.787,132.857L21.868,132.716L21.951,132.576L22.033,132.436L22.117,132.296L22.201,132.157L22.288,132.016L22.459,131.742L22.634,131.468L22.811,131.195L22.992,130.924L23.175,130.654L23.361,130.386L23.549,130.12L23.74,129.855L23.934,129.591L24.13,129.329L24.329,129.069L24.53,128.81L24.734,128.552L24.94,128.296L25.148,128.041L25.359,127.788L25.572,127.536L25.788,127.285L26.005,127.036L26.226,126.788L26.448,126.541L26.673,126.296L26.899,126.051L27.128,125.808L27.36,125.566L27.593,125.325L27.828,125.085L28.066,124.847L28.305,124.609L28.547,124.373L28.791,124.137L29.036,123.903L29.284,123.669L29.534,123.437L29.785,123.205L30.039,122.974L30.294,122.745L30.552,122.516L30.811,122.288L31.072,122.061L31.335,121.834L31.418,121.763L31.6,121.609L31.867,121.386L32.137,121.162L32.408,120.94L32.68,120.719L32.955,120.498L33.231,120.277L33.508,120.058L33.788,119.839L34.069,119.62L34.351,119.403L34.636,119.185L34.921,118.969L35.209,118.753L35.498,118.537L35.788,118.322L36.08,118.107L36.373,117.893L36.668,117.679L36.965,117.465L37.263,117.252L37.562,117.04L37.863,116.827L38.165,116.615L38.468,116.403L38.773,116.192L39.079,115.981L39.386,115.77L39.695,115.559L40.005,115.348L40.317,115.138L40.629,114.928L40.943,114.718L41.258,114.508L41.891,114.088L42.111,113.944L42.528,113.671L42.536,113.666L43.659,113.436L44.611,114.016L44.623,114.032L44.858,115.122L44.272,116.107L44.264,116.113L43.873,116.415L43.666,116.574L43.074,117.033L42.781,117.261L42.488,117.49L42.198,117.719L41.909,117.947L41.621,118.175L41.335,118.404L41.05,118.632L40.767,118.86L40.486,119.088L40.206,119.315L39.928,119.543L39.651,119.771L39.377,119.999L39.104,120.226L38.832,120.454L38.563,120.682L38.295,120.91L38.029,121.137L37.765,121.365L37.503,121.593L37.243,121.821L36.984,122.049L36.728,122.277L36.473,122.505L36.221,122.733L35.97,122.962L35.722,123.19L35.475,123.419L35.23,123.648L34.988,123.876L34.748,124.106L34.51,124.335L34.274,124.564L34.113,124.722L34.039,124.793L33.807,125.022L33.576,125.251L33.348,125.481L33.122,125.71L32.899,125.94L32.677,126.17L32.458,126.4L32.241,126.63L32.027,126.861L31.815,127.092L31.605,127.324L31.398,127.555L31.193,127.787L30.99,128.02L30.79,128.252L30.593,128.485L30.398,128.719L30.205,128.952L30.015,129.186L29.828,129.421L29.643,129.656L29.461,129.891L29.281,130.126L29.104,130.362L28.929,130.599L28.758,130.836L28.588,131.073L28.422,131.311L28.258,131.549L28.097,131.787L27.938,132.026L27.783,132.266L27.63,132.506L27.479,132.747L27.332,132.988L27.187,133.229L27.045,133.472L26.906,133.714L26.77,133.957L26.636,134.201L26.504,134.448L26.441,134.568L26.378,134.691L26.315,134.813L26.252,134.936L26.191,135.059L26.13,135.183L26.07,135.306L26.011,135.429L25.952,135.553L25.894,135.677L25.837,135.801L25.781,135.925L25.725,136.05L25.67,136.174L25.616,136.299L25.562,136.424L25.509,136.549L25.457,136.674L25.406,136.8L25.355,136.925L25.305,137.051L25.256,137.177L25.208,137.303L25.16,137.43L25.113,137.557L25.067,137.683L25.021,137.81L24.976,137.938L24.932,138.065L24.889,138.193L24.846,138.321L24.805,138.449L24.763,138.577L24.723,138.706L24.683,138.835L24.645,138.964L24.606,139.093L24.569,139.223L24.532,139.352L24.497,139.482L24.461,139.613L24.427,139.743L24.393,139.874L24.36,140.005L24.328,140.136L24.297,140.268L24.266,140.4L24.236,140.532L24.207,140.665L24.179,140.797L24.151,140.93L24.125,141.064L24.099,141.197L24.073,141.331L24.049,141.465L24.025,141.6L24.002,141.734L23.98,141.87L23.958,142.005L23.938,142.141L23.918,142.277L23.899,142.413L23.881,142.55L23.863,142.687L23.846,142.824L23.839,142.888L23.83,142.962L23.814,143.1L23.798,143.238L23.784,143.377L23.77,143.516L23.757,143.656L23.745,143.795L23.733,143.936L23.723,144.076L23.713,144.217L23.704,144.359L23.696,144.5L23.688,144.643L23.682,144.785L23.676,144.928L23.671,145.072L23.667,145.215L23.664,145.36L23.661,145.504L23.659,145.649L23.659,145.795L23.659,145.941L23.66,146.087L23.661,146.234L23.664,146.382L23.667,146.53L23.672,146.678L23.677,146.826L23.683,146.976L23.69,147.125L23.697,147.275L23.706,147.426L23.716,147.577L23.727,147.741L23.739,147.904L23.751,148.067L23.765,148.229L23.779,148.39L23.794,148.551L23.81,148.711L23.827,148.87L23.844,149.029L23.862,149.187L23.881,149.344L23.901,149.501L23.922,149.657L23.943,149.813L23.965,149.967L23.988,150.122L24.011,150.275L24.035,150.428L24.06,150.581L24.086,150.732L24.112,150.883L24.14,151.034L24.167,151.183L24.196,151.333L24.225,151.481L24.255,151.629L24.286,151.776L24.317,151.923L24.349,152.069L24.382,152.214L24.415,152.359L24.449,152.503L24.484,152.646L24.519,152.789L24.555,152.931L24.592,153.073L24.629,153.214L24.667,153.354L24.706,153.494L24.745,153.633L24.785,153.771L24.826,153.909L24.867,154.046L24.909,154.182L24.951,154.318L24.994,154.453L25.038,154.588L25.082,154.722L25.127,154.855L25.172,154.988L25.218,155.12L25.265,155.251L25.312,155.382L25.36,155.513L25.408,155.642L25.457,155.771L25.506,155.899L25.556,156.027L25.607,156.154L25.658,156.281L25.709,156.406L25.762,156.532L25.814,156.656L25.868,156.78L25.922,156.903L25.976,157.026L26.031,157.148L26.086,157.27L26.142,157.39L26.198,157.511L26.255,157.63L26.313,157.749L26.371,157.868L26.429,157.985L26.488,158.102L26.547,158.219L26.607,158.335L26.667,158.45L26.728,158.565L26.79,158.678L26.851,158.792L26.913,158.905L26.976,159.017L27.039,159.128L27.103,159.239L27.167,159.349L27.231,159.459L27.296,159.568L27.362,159.676L27.427,159.784L27.493,159.891L27.56,159.998L27.627,160.104L27.694,160.209L27.762,160.314L27.831,160.418L27.899,160.521L27.968,160.624L28.038,160.726L28.108,160.828L28.178,160.929L28.248,161.029L28.319,161.129L28.391,161.228L28.462,161.326L28.534,161.424L28.607,161.521L28.68,161.618L28.753,161.714L28.824,161.805L28.974,161.998L29.124,162.184L29.274,162.368L29.426,162.549L29.58,162.728L29.734,162.905L29.89,163.078L30.046,163.25L30.204,163.419L30.363,163.585L30.523,163.749L30.684,163.91L30.846,164.069L31.009,164.225L31.173,164.379L31.338,164.53L31.503,164.679L31.67,164.825L31.837,164.969L32.005,165.11L32.036,165.136L32.172,165.25L32.34,165.387L32.509,165.522L32.679,165.655L32.849,165.785L33.019,165.912L33.19,166.037L33.362,166.16L33.534,166.279L33.706,166.397L33.879,166.512L34.052,166.624L34.226,166.734L34.399,166.841L34.573,166.945L34.747,167.048L34.922,167.147L35.096,167.244L35.271,167.339L35.445,167.43L35.62,167.52L35.794,167.606L35.969,167.691L36.143,167.772L36.317,167.852L36.491,167.928L36.665,168.002L36.839,168.074L37.012,168.142L37.185,168.209L37.357,168.273L37.529,168.334L37.701,168.393L37.872,168.449L38.042,168.503L38.212,168.554L38.381,168.603L38.55,168.649L38.717,168.692L38.884,168.734L39.051,168.772L39.216,168.808L39.38,168.842L39.544,168.873L39.707,168.902L39.868,168.929L40.029,168.953L40.188,168.974L40.347,168.994L40.504,169.01L40.66,169.025L40.815,169.037L40.977,169.048L41.177,169.059L41.386,169.07L41.593,169.081L41.8,169.09L42.006,169.098L42.212,169.105L42.416,169.111L42.62,169.116L42.823,169.119L42.868,169.12L43.025,169.123L43.226,169.126L43.427,169.128L43.627,169.129L43.826,169.129L44.025,169.127L44.222,169.124L44.42,169.12L44.616,169.115L44.812,169.109L45.007,169.101L45.201,169.093L45.395,169.083L45.589,169.072L45.781,169.059L45.973,169.046L46.165,169.031L46.356,169.015L46.546,168.997L46.736,168.979L46.925,168.959L47.114,168.938L47.302,168.915L47.49,168.891L47.677,168.866L47.864,168.84L48.05,168.812L48.236,168.783L48.421,168.752L48.606,168.721L48.791,168.687L48.975,168.653L49.159,168.617L49.343,168.579L49.526,168.541L49.709,168.501L49.892,168.459L50.074,168.416L50.256,168.371L50.438,168.325L50.62,168.278L50.801,168.229L50.982,168.179L51.163,168.127L51.344,168.073L51.525,168.018L51.706,167.962L51.886,167.903L52.067,167.844L52.247,167.782L52.427,167.719L52.608,167.655L52.788,167.589L52.968,167.521L53.148,167.451L53.329,167.38L53.509,167.307L53.689,167.232L53.87,167.156L54.05,167.078L54.231,166.998L54.412,166.916L54.59,166.834L54.593,166.832L54.775,166.748L54.957,166.663L55.139,166.575L55.322,166.486L55.504,166.394L55.687,166.301L55.871,166.206L56.054,166.108L56.238,166.009L56.422,165.908L56.607,165.804L56.791,165.699L56.977,165.592L57.162,165.482L57.348,165.37L57.534,165.257L57.721,165.141L57.908,165.023L58.095,164.902L58.283,164.78L58.471,164.655L58.66,164.528L58.849,164.399L59.039,164.267L59.229,164.133L59.42,163.997L59.611,163.859L59.802,163.718L59.994,163.574L60.187,163.429L60.38,163.281L60.573,163.13L60.767,162.977L60.962,162.822L61.157,162.664L61.352,162.503L61.548,162.34L61.745,162.175L61.942,162.007L62.14,161.836L62.339,161.663L62.537,161.487L62.737,161.308L62.937,161.127L63.138,160.943L63.339,160.757L63.541,160.567L63.743,160.375L63.946,160.181L64.15,159.983L64.354,159.783L64.559,159.58L64.764,159.374L64.97,159.166L65.177,158.954L65.186,158.944L65.736,158.173L66.43,157.208L66.496,157.116L66.77,156.74L67.103,156.284L67.43,155.838L67.751,155.402L68.067,154.975L68.378,154.557L68.683,154.148L68.984,153.747L69.281,153.355L69.574,152.97L69.863,152.593L70.149,152.224L70.431,151.862L70.711,151.507L70.989,151.158L71.264,150.816L71.537,150.479L71.809,150.149L72.079,149.824L72.349,149.505L72.617,149.191L72.885,148.882L73.153,148.577L73.421,148.278L73.689,147.982L73.955,147.694L74.092,147.547L74.227,147.404L74.362,147.261L74.498,147.12L74.633,146.98L74.769,146.84L74.905,146.701L75.042,146.564L75.179,146.427L75.316,146.29L75.454,146.155L75.593,146.02L75.732,145.887L75.871,145.753L76.011,145.621L76.152,145.489L76.293,145.358L76.434,145.228L76.577,145.098L76.72,144.968L76.863,144.84L77.008,144.711L77.153,144.584L77.299,144.457L77.445,144.33L77.593,144.204L77.741,144.078L77.89,143.953L78.04,143.828L78.194,143.7L78.495,143.455L78.803,143.207L79.115,142.961L79.431,142.715L79.751,142.47L80.077,142.225L80.407,141.979L80.742,141.734L81.082,141.488L81.094,141.479L81.429,141.241L81.781,140.994L82.139,140.745L82.504,140.494L82.875,140.242L83.254,139.987L83.639,139.73L84.032,139.47L84.433,139.207L85.318,138.627L86.347,138.319L86.828,138.177L87.307,138.036L87.786,137.896L88.265,137.757L88.743,137.62L89.221,137.483L89.699,137.348L90.176,137.214L90.653,137.08L91.129,136.948L91.605,136.818L92.081,136.688L92.556,136.559L93.031,136.431L93.506,136.305L93.98,136.18L94.454,136.055L94.928,135.932L95.402,135.81L95.876,135.689L96.349,135.569L96.822,135.45L97.295,135.333L97.768,135.216L98.241,135.101L98.713,134.986L99.186,134.873L99.658,134.76L100.13,134.649L100.603,134.539L101.075,134.43L101.547,134.322L102.019,134.215L102.491,134.109L102.963,134.004L103.181,133.956L103.436,133.901L103.908,133.799L104.38,133.698L104.853,133.598L105.326,133.5L105.798,133.402L106.271,133.305L106.744,133.21L107.217,133.115L107.69,133.022L108.164,132.929L108.637,132.838L109.111,132.747L109.585,132.658L110.059,132.57L110.533,132.482L111.008,132.396L111.483,132.311L111.958,132.226L112.434,132.143L112.91,132.061L113.386,131.98L113.863,131.899L114.339,131.82L114.817,131.742L115.294,131.664L115.773,131.588L116.251,131.513L116.73,131.439L117.209,131.365L117.689,131.293L118.169,131.222L118.65,131.151L119.132,131.082L119.613,131.013L120.096,130.946L120.579,130.879L121.062,130.814L121.546,130.749L122.031,130.686L122.516,130.623L123.002,130.561L123.489,130.501L123.976,130.441L124.464,130.382L124.952,130.324L125.442,130.267L125.932,130.211L126.007,130.203L126.423,130.157L126.914,130.104L127.406,130.052L127.9,130L128.393,129.95L128.888,129.901L129.384,129.852L129.88,129.804L130.377,129.758L130.875,129.712L131.374,129.667L131.874,129.623L132.375,129.58L132.876,129.538L133.379,129.497L133.882,129.456L134.387,129.417L134.892,129.378L135.399,129.341L135.906,129.304L136.415,129.268L136.924,129.233L137.435,129.199L137.947,129.165L138.46,129.133L138.973,129.101L139.488,129.071L140.005,129.041L140.522,129.012L141.04,128.984L141.56,128.957L142.081,128.93L142.603,128.905L143.126,128.88L143.651,128.856L144.177,128.833L144.704,128.811L145.232,128.79L145.762,128.769L146.293,128.749L146.825,128.73L147.359,128.712L147.894,128.695L148.44,128.678L148.603,128.674L148.776,128.672L148.948,128.672L149.12,128.675L149.292,128.679L149.464,128.685L149.635,128.694L149.806,128.704L149.976,128.717L150.146,128.732L150.316,128.748L150.485,128.766L150.654,128.786L150.822,128.809L150.99,128.832L151.158,128.858L151.325,128.885L151.492,128.914L151.658,128.945L151.824,128.977L151.99,129.012L152.155,129.047L152.319,129.084L152.483,129.123L152.647,129.163L152.811,129.205L152.974,129.248L153.136,129.293L153.298,129.339L153.46,129.386L153.621,129.435L153.782,129.485L153.943,129.536L154.103,129.589L154.263,129.643L154.422,129.698L154.581,129.755L154.74,129.812L154.898,129.871L155.056,129.931L155.214,129.992L155.371,130.055L155.528,130.118L155.684,130.182L155.841,130.248L155.997,130.315L156.152,130.382L156.308,130.451L156.463,130.521L156.618,130.591L156.772,130.663L156.927,130.736L157.081,130.809L157.234,130.883L157.388,130.959L157.541,131.035L157.694,131.112L157.847,131.19L157.999,131.269L158.155,131.351L158.455,131.511L158.758,131.676L159.06,131.844L159.361,132.015L159.661,132.189L159.961,132.365L160.259,132.544L160.557,132.726L160.855,132.911L161.151,133.097L161.447,133.286L161.743,133.477L162.037,133.67L162.331,133.865L162.624,134.062L162.917,134.261L163.209,134.462L163.501,134.664L163.791,134.867L164.082,135.072L164.371,135.278L164.66,135.486L164.949,135.694L165.236,135.904L165.524,136.114L165.81,136.326L166.096,136.538L166.381,136.75L166.666,136.964L166.951,137.178L167.515,137.606L168.079,138.035L168.639,138.464L169.196,138.893L169.907,139.44L170.301,139.745L170.847,140.168L171.39,140.587L171.929,141.001L172.465,141.41L172.997,141.814L173.26,142.012L173.522,142.209L173.784,142.404L174.044,142.597L174.304,142.788L174.561,142.976L174.818,143.162L175.073,143.346L175.327,143.527L175.579,143.706L175.83,143.882L176.079,144.055L176.327,144.225L176.573,144.392L176.818,144.557L177.061,144.717L177.302,144.875L177.541,145.029L177.778,145.179L178.013,145.326L178.246,145.47L178.478,145.609L178.707,145.745L178.933,145.876L179.158,146.004L179.38,146.127L179.603,146.249L179.708,146.305L179.816,146.362L179.924,146.418L180.03,146.472L180.136,146.526L180.242,146.578L180.347,146.63L180.45,146.68L180.554,146.729L180.656,146.777L180.758,146.824L180.859,146.869L180.959,146.914L181.058,146.957L181.156,146.999L181.254,147.04L181.351,147.08L181.446,147.118L181.541,147.156L181.636,147.192L181.729,147.227L181.821,147.26L181.912,147.293L182.003,147.324L182.092,147.354L182.18,147.383L182.268,147.411L182.354,147.437L182.44,147.463L182.524,147.487L182.607,147.51L182.689,147.531L182.77,147.552L182.85,147.571L182.929,147.59L183.007,147.607L183.084,147.623L183.167,147.639L183.663,147.731L184.147,147.82L184.613,147.904L185.061,147.982L185.495,148.056L185.702,148.09L185.909,148.124L186.111,148.156L186.311,148.187L186.507,148.216L186.7,148.245L186.891,148.272L187.079,148.297L187.264,148.321L187.447,148.344L187.628,148.366L187.807,148.387L187.984,148.406L188.16,148.424L188.335,148.44L188.508,148.456L188.681,148.47L188.853,148.482L189.025,148.494L189.197,148.504L189.368,148.514L189.54,148.521L189.713,148.528L189.886,148.533L190.06,148.537L190.236,148.54L190.413,148.541L190.592,148.542L190.773,148.54L190.955,148.538L191.141,148.534L191.328,148.529L191.519,148.522L191.712,148.514L191.909,148.504L192.109,148.493L192.313,148.481L192.52,148.467L192.732,148.451L192.947,148.434L193.167,148.415L193.392,148.395L193.62,148.373L193.854,148.349L194.093,148.324L194.337,148.297L194.586,148.268L194.841,148.238L195.101,148.206L195.367,148.172L195.639,148.136L195.917,148.099L196.202,148.059L196.413,148.03L196.467,148.021L196.586,147.996L196.708,147.97L196.831,147.942L196.956,147.911L197.083,147.879L197.211,147.846L197.342,147.81L197.473,147.772L197.606,147.733L197.74,147.692L197.876,147.649L198.013,147.604L198.152,147.557L198.291,147.508L198.432,147.458L198.574,147.406L198.716,147.352L198.86,147.296L199.005,147.239L199.151,147.179L199.297,147.118L199.445,147.056L199.593,146.991L199.742,146.925L199.787,146.905L199.891,146.858L200.042,146.79L200.193,146.72L200.345,146.648L200.497,146.575L200.65,146.5L200.803,146.424L200.957,146.346L201.111,146.266L201.265,146.186L201.42,146.103L201.575,146.019L201.73,145.934L201.885,145.847L202.04,145.759L202.196,145.67L202.351,145.579L202.507,145.486L202.663,145.393L202.818,145.298L202.974,145.202L203.129,145.104L203.284,145.006L203.439,144.906L203.594,144.805L203.748,144.703L203.903,144.599L204.056,144.495L204.21,144.389L204.363,144.282L204.516,144.174L204.668,144.065L204.82,143.955L204.971,143.845L205.122,143.733L205.272,143.62L205.421,143.506L205.57,143.391L205.718,143.275L205.866,143.159L206.012,143.042L206.158,142.923L206.303,142.804L206.447,142.684L206.591,142.564L206.733,142.443L206.874,142.321L207.015,142.198L207.154,142.074L207.293,141.95L207.43,141.826L207.566,141.7L207.701,141.575L207.835,141.448L207.954,141.334L207.968,141.321L208.1,141.195L208.231,141.068L208.361,140.94L208.489,140.812L208.616,140.683L208.742,140.555L208.866,140.425L208.989,140.296L209.11,140.166L209.23,140.036L209.348,139.906L209.465,139.775L209.58,139.644L209.694,139.513L209.806,139.382L209.916,139.251L210.024,139.12L210.131,138.989L210.236,138.858L210.34,138.726L210.441,138.595L210.541,138.464L210.639,138.333L210.735,138.202L210.829,138.072L210.921,137.941L211.011,137.811L211.099,137.681L211.185,137.552L211.269,137.423L211.351,137.294L211.431,137.165L211.509,137.037L211.585,136.91L211.659,136.783L211.73,136.657L211.8,136.531L211.867,136.406L211.932,136.282L211.995,136.158L212.055,136.035L212.114,135.913L212.17,135.792L212.224,135.672L212.275,135.553L212.324,135.434L212.372,135.317L212.418,135.197L212.454,135.099L212.492,134.995L212.529,134.889L212.565,134.782L212.602,134.673L212.637,134.562L212.673,134.45L212.707,134.336L212.742,134.221L212.775,134.104L212.808,133.985L212.841,133.865L212.873,133.744L212.904,133.621L212.935,133.497L212.965,133.371L212.995,133.244L213.023,133.116L213.051,132.986L213.079,132.855L213.105,132.723L213.131,132.589L213.132,132.585L213.157,132.455L213.182,132.319L213.207,132.182L213.23,132.044L213.253,131.905L213.275,131.764L213.296,131.623L213.316,131.481L213.336,131.337L213.355,131.193L213.372,131.047L213.389,130.901L213.405,130.753L213.42,130.605L213.434,130.456L213.448,130.306L213.46,130.155L213.471,130.003L213.482,129.851L213.491,129.697L213.499,129.543L213.507,129.389L213.513,129.233L213.519,129.077L213.523,128.92L213.526,128.762L213.529,128.604L213.53,128.445L213.53,128.286L213.529,128.126L213.527,127.965L213.524,127.804L213.52,127.642L213.515,127.48L213.509,127.318L213.501,127.155L213.493,126.991L213.483,126.827L213.472,126.663L213.46,126.498L213.447,126.333L213.432,126.168L213.416,126.002L213.4,125.836L213.382,125.67L213.362,125.503L213.342,125.337L213.32,125.17L213.297,125.003L213.273,124.835L213.247,124.668L213.221,124.5L213.193,124.332L213.163,124.164L213.133,123.996L213.101,123.828L213.068,123.66L213.033,123.492L212.997,123.324L212.96,123.156L212.921,122.988L212.882,122.82L212.84,122.652L212.798,122.484L212.754,122.316L212.708,122.148L212.662,121.981L212.613,121.813L212.564,121.646L212.513,121.479L212.461,121.312L212.407,121.145L212.351,120.978L212.295,120.812L212.236,120.646L212.177,120.48L212.116,120.315L212.053,120.15L211.989,119.985L211.924,119.82L211.856,119.656L211.788,119.492L211.718,119.329L211.646,119.166L211.573,119.003L211.498,118.841L211.422,118.679L211.344,118.518L211.265,118.357L211.184,118.197L211.101,118.037L211.017,117.878L210.931,117.719L210.844,117.561L210.755,117.403L210.664,117.246L210.572,117.09L210.478,116.934L210.382,116.778L210.285,116.624L210.186,116.47L210.085,116.316L209.982,116.163L209.878,116.011L209.772,115.86L209.662,115.706L209.479,115.454L209.294,115.203L209.111,114.954L208.928,114.709L208.745,114.466L208.564,114.227L208.383,113.99L208.203,113.757L208.023,113.526L207.844,113.298L207.666,113.073L207.489,112.851L207.312,112.631L207.135,112.414L206.96,112.2L206.818,112.029L206.785,111.988L206.611,111.779L206.437,111.572L206.264,111.367L206.092,111.165L205.92,110.966L205.748,110.769L205.577,110.574L205.406,110.382L205.236,110.193L205.065,110.005L204.896,109.82L204.726,109.637L204.557,109.456L204.387,109.278L204.219,109.102L204.05,108.927L203.881,108.755L203.713,108.585L203.545,108.417L203.377,108.251L203.208,108.087L203.04,107.925L202.872,107.765L202.705,107.606L202.537,107.45L202.369,107.295L202.2,107.142L202.032,106.991L201.864,106.841L201.696,106.693L201.527,106.547L201.358,106.402L201.189,106.259L201.02,106.117L200.851,105.977L200.681,105.838L200.511,105.701L200.34,105.565L200.169,105.43L199.998,105.297L199.827,105.165L199.655,105.034L199.482,104.905L199.309,104.776L199.136,104.649L198.962,104.523L198.787,104.398L198.612,104.274L198.436,104.152L198.26,104.03L198.082,103.909L197.905,103.789L197.726,103.67L197.547,103.552L197.367,103.434L197.186,103.318L197.004,103.202L196.821,103.087L196.638,102.973L196.454,102.86L196.269,102.747L196.082,102.634L195.895,102.523L195.707,102.412L195.518,102.301L195.328,102.191L195.137,102.082L194.944,101.973L194.751,101.864L194.556,101.756L194.361,101.649L194.164,101.541L193.966,101.434L193.767,101.327L193.566,101.221L193.365,101.115L193.162,101.009L192.959,100.903L192.545,100.691L192.127,100.481L191.704,100.27L191.274,100.059L190.839,99.848L190.398,99.637L189.951,99.425L189.498,99.212L189.038,98.997L188.571,98.782L188.098,98.565L187.618,98.346L187.132,98.125L186.135,97.675L185.109,97.215L185.1,97.211L184.288,96.377L184.27,95.253L184.277,95.235L185.088,94.456L186.252,94.445L186.261,94.448Z"/>
</svg>
